<svg width="71" height="71" viewBox="0 0 71 71" fill="none" xmlns="http://www.w3.org/2000/svg">
<rect x="35.3553" width="50" height="50" transform="rotate(45 35.3553 0)" fill="#EDD713"/>
<path d="M24.45 45.42C21.83 45.42 19.77 44.43 18.27 42.45C16.79 40.45 16.05 37.8 16.05 34.5C16.05 31.2 16.79 28.56 18.27 26.58C19.77 24.58 21.83 23.58 24.45 23.58C27.09 23.58 29.15 24.58 30.63 26.58C32.11 28.56 32.85 31.2 32.85 34.5C32.85 37.8 32.11 40.45 30.63 42.45C29.15 44.43 27.09 45.42 24.45 45.42ZM21.27 39.63C21.99 40.79 23.05 41.37 24.45 41.37C25.85 41.37 26.91 40.78 27.63 39.6C28.37 38.42 28.74 36.72 28.74 34.5C28.74 32.26 28.37 30.55 27.63 29.37C26.91 28.19 25.85 27.6 24.45 27.6C23.05 27.6 21.99 28.19 21.27 29.37C20.55 30.55 20.19 32.26 20.19 34.5C20.19 36.74 20.55 38.45 21.27 39.63ZM50.8765 37.59V41.43H48.6265V45H44.4565V41.43H34.5265V37.59L41.5165 24H45.9565L38.9965 37.59H44.4565V32.61H48.6265V37.59H50.8765Z" fill="#393939"/>
</svg>
