<svg width="93" height="34" viewBox="0 0 93 34" fill="none" xmlns="http://www.w3.org/2000/svg">
<path d="M0 0H41.58H44V5.5V34H0V0Z" fill="#F5E934"/>
<path d="M54.224 22H53.008L54.784 10.736L58.88 19.744L63.056 10.72L64.72 22H63.504L62.496 14.576L58.864 22.448L55.28 14.576L54.224 22ZM71.8285 19.776L72.7885 20.304C72.5645 20.7307 72.2925 21.088 71.9725 21.376C71.3645 21.92 70.6285 22.192 69.7645 22.192C68.8685 22.192 68.0952 21.904 67.4445 21.328C66.8045 20.7413 66.4845 19.872 66.4845 18.72C66.4845 17.7067 66.7725 16.8693 67.3485 16.208C67.9352 15.536 68.7192 15.2 69.7005 15.2C70.8098 15.2 71.6472 15.6053 72.2125 16.416C72.6605 17.056 72.8685 17.888 72.8365 18.912H67.6685C67.6792 19.584 67.8872 20.128 68.2925 20.544C68.6978 20.96 69.1938 21.168 69.7805 21.168C70.3032 21.168 70.7565 21.008 71.1405 20.688C71.4392 20.432 71.6685 20.128 71.8285 19.776ZM67.7485 17.952H71.6525C71.5565 17.4293 71.3272 17.0133 70.9645 16.704C70.6125 16.384 70.1912 16.224 69.7005 16.224C69.2205 16.224 68.7938 16.3893 68.4205 16.72C68.0578 17.04 67.8338 17.4507 67.7485 17.952ZM74.6036 22V15.36H75.7556V18.08H78.8916V15.36H80.0436V22H78.8916V19.136H75.7556V22H74.6036ZM83.365 18.08H84.565C84.6717 17.3333 84.9703 16.704 85.461 16.192C86.0903 15.5307 86.9277 15.2 87.973 15.2C88.997 15.2 89.8397 15.5307 90.501 16.192C91.1623 16.8533 91.493 17.6907 91.493 18.704C91.493 19.7067 91.157 20.5387 90.485 21.2C89.8237 21.8613 88.9863 22.192 87.973 22.192C86.8103 22.192 85.8983 21.776 85.237 20.944C84.8103 20.4107 84.565 19.808 84.501 19.136H83.365V22H82.213V15.36H83.365V18.08ZM87.973 16.224C87.333 16.224 86.789 16.448 86.341 16.896C85.9037 17.3333 85.685 17.936 85.685 18.704C85.685 19.4827 85.909 20.0907 86.357 20.528C86.805 20.9547 87.3437 21.168 87.973 21.168C88.613 21.168 89.1623 20.9493 89.621 20.512C90.0797 20.0747 90.309 19.472 90.309 18.704C90.309 17.936 90.0797 17.3333 89.621 16.896C89.173 16.448 88.6237 16.224 87.973 16.224Z" fill="white"/>
<rect x="10" y="11" width="25" height="2" fill="#181818"/>
<rect x="10" y="21" width="25" height="2" fill="#181818"/>
<rect x="10" y="16" width="20" height="2" fill="#181818"/>
</svg>
