<svg width="71" height="71" viewBox="0 0 71 71" fill="none" xmlns="http://www.w3.org/2000/svg">
<rect x="35.3553" width="50" height="50" transform="rotate(45 35.3553 0)" fill="#EDD713"/>
<path d="M29.45 45.42C26.83 45.42 24.77 44.43 23.27 42.45C21.79 40.45 21.05 37.8 21.05 34.5C21.05 31.2 21.79 28.56 23.27 26.58C24.77 24.58 26.83 23.58 29.45 23.58C32.09 23.58 34.15 24.58 35.63 26.58C37.11 28.56 37.85 31.2 37.85 34.5C37.85 37.8 37.11 40.45 35.63 42.45C34.15 44.43 32.09 45.42 29.45 45.42ZM26.27 39.63C26.99 40.79 28.05 41.37 29.45 41.37C30.85 41.37 31.91 40.78 32.63 39.6C33.37 38.42 33.74 36.72 33.74 34.5C33.74 32.26 33.37 30.55 32.63 29.37C31.91 28.19 30.85 27.6 29.45 27.6C28.05 27.6 26.99 28.19 26.27 29.37C25.55 30.55 25.19 32.26 25.19 34.5C25.19 36.74 25.55 38.45 26.27 39.63ZM44.1605 24H47.7605V45H43.6205V28.38L39.6605 29.49L38.6405 25.95L44.1605 24Z" fill="#393939"/>
</svg>
