<svg width="71" height="71" viewBox="0 0 71 71" fill="none" xmlns="http://www.w3.org/2000/svg">
<rect x="35.3553" width="50" height="50" transform="rotate(45 35.3553 0)" fill="#EDD713"/>
<path d="M25.45 45.42C22.83 45.42 20.77 44.43 19.27 42.45C17.79 40.45 17.05 37.8 17.05 34.5C17.05 31.2 17.79 28.56 19.27 26.58C20.77 24.58 22.83 23.58 25.45 23.58C28.09 23.58 30.15 24.58 31.63 26.58C33.11 28.56 33.85 31.2 33.85 34.5C33.85 37.8 33.11 40.45 31.63 42.45C30.15 44.43 28.09 45.42 25.45 45.42ZM22.27 39.63C22.99 40.79 24.05 41.37 25.45 41.37C26.85 41.37 27.91 40.78 28.63 39.6C29.37 38.42 29.74 36.72 29.74 34.5C29.74 32.26 29.37 30.55 28.63 29.37C27.91 28.19 26.85 27.6 25.45 27.6C24.05 27.6 22.99 28.19 22.27 29.37C21.55 30.55 21.19 32.26 21.19 34.5C21.19 36.74 21.55 38.45 22.27 39.63ZM44.6369 32.52C46.0569 32.94 47.2069 33.68 48.0869 34.74C48.9869 35.78 49.4369 37.04 49.4369 38.52C49.4369 40.68 48.7069 42.37 47.2469 43.59C45.8069 44.81 44.0369 45.42 41.9369 45.42C40.2969 45.42 38.8269 45.05 37.5269 44.31C36.2469 43.55 35.3169 42.44 34.7369 40.98L38.2769 38.94C38.7969 40.56 40.0169 41.37 41.9369 41.37C42.9969 41.37 43.8169 41.12 44.3969 40.62C44.9969 40.1 45.2969 39.4 45.2969 38.52C45.2969 37.66 44.9969 36.97 44.3969 36.45C43.8169 35.93 42.9969 35.67 41.9369 35.67H41.0369L39.4469 33.27L43.5869 27.87H35.3669V24H48.5669V27.42L44.6369 32.52Z" fill="#393939"/>
</svg>
