<svg width="71" height="71" viewBox="0 0 71 71" fill="none" xmlns="http://www.w3.org/2000/svg">
<rect x="35.3553" width="50" height="50" transform="rotate(45 35.3553 0)" fill="#EDD713"/>
<path d="M26.45 45.42C23.83 45.42 21.77 44.43 20.27 42.45C18.79 40.45 18.05 37.8 18.05 34.5C18.05 31.2 18.79 28.56 20.27 26.58C21.77 24.58 23.83 23.58 26.45 23.58C29.09 23.58 31.15 24.58 32.63 26.58C34.11 28.56 34.85 31.2 34.85 34.5C34.85 37.8 34.11 40.45 32.63 42.45C31.15 44.43 29.09 45.42 26.45 45.42ZM23.27 39.63C23.99 40.79 25.05 41.37 26.45 41.37C27.85 41.37 28.91 40.78 29.63 39.6C30.37 38.42 30.74 36.72 30.74 34.5C30.74 32.26 30.37 30.55 29.63 29.37C28.91 28.19 27.85 27.6 26.45 27.6C25.05 27.6 23.99 28.19 23.27 29.37C22.55 30.55 22.19 32.26 22.19 34.5C22.19 36.74 22.55 38.45 23.27 39.63ZM36.1791 45V41.91L43.3491 34.53C44.9491 32.85 45.7491 31.45 45.7491 30.33C45.7491 29.51 45.4891 28.85 44.9691 28.35C44.4691 27.85 43.8191 27.6 43.0191 27.6C41.4391 27.6 40.2691 28.42 39.5091 30.06L36.0291 28.02C36.6891 26.58 37.6391 25.48 38.8791 24.72C40.1191 23.96 41.4791 23.58 42.9591 23.58C44.8591 23.58 46.4891 24.18 47.8491 25.38C49.2091 26.56 49.8891 28.16 49.8891 30.18C49.8891 32.36 48.7391 34.6 46.4391 36.9L42.3291 41.01H50.2191V45H36.1791Z" fill="#393939"/>
</svg>
